/* XPM */
static char *_1471232e9c64d499c67c7b1fcedc652QX2SIesWndYEQZnw[] = {
/* columns rows colors chars-per-pixel */
"100 100 42 1 ",
"  c #0B0B0B",
". c gray4",
"X c #060606",
"o c gray1",
"O c #040404",
"+ c gray3",
"@ c #111111",
"# c gray8",
"$ c #151515",
"% c gray7",
"& c gray5",
"* c #090909",
"= c #0E0E0E",
"- c #101010",
"; c #020202",
": c gray2",
"> c #181818",
", c gray9",
"< c #161616",
"1 c #131313",
"2 c gray11",
"3 c gray13",
"4 c #202020",
"5 c gray10",
"6 c #070707",
"7 c #0C0C0C",
"8 c #1D1D1D",
"9 c #191919",
"0 c gray6",
"q c gray12",
"w c #1E1E1E",
"e c #1B1B1B",
"r c gray15",
"t c gray14",
"y c #222222",
"u c #272727",
"i c #252525",
"p c #282828",
"a c #232323",
"s c #010101",
"d c gray16",
"f c #2A2A2A",
/* pixels */
" .XoO+@#$%&.XXX*. ++=-- **O;oo;:* #>,<%&*oOX&123345<-.++666+6XXX:6++++X:O;;;XX6XX+666XX:;;;;*=7&&&&&",
"X:X:*%$>24489$<<$10&@-= . :OoOX7%#99>,<1-+OX=,83q29,,><&X::6=<9,$=+XO66Oo;;OX. ..***+:O;oo;OX+*..*+X",
";X: w%&==0%<$>e>>>>><,9,#1*O:: 0&&&777&  .+X%>$11@-1001-.X:03r4e289.X#,1*:XX-23>#922#*XXXO:X*. 7&& :",
"O:*q,&0000========0000@@0=&.X:0- &&&&&&& :*6-@%%-=0000=&=+.2e1111$2=@#@@.6+*53qqq344tw=*X:6.@#,>95,7",
" X%$&=======0=00000=0000==&7::=-&0000==& +66&0=00==0=&&70*09@@@@#1$.%10=*X*+1$%%>1-0%we*O6.1eyuipiq1",
"-**&=&&&&=====00=====00===& XO&-=--@@-0& +*X&0&==&&0=&&7=.%1@%@%%$-X $0=***: #%@11@@@=1 :*-ee289<,>1",
"-+&0===&&==&==0=00==00-000&*+:*00-@@%%-=&*X:=0&&&&&=&&&7&*11@@@@0-@7+<=&+6*:%%0%@@@%%0@ O.-,1$$1@@11",
"0+9@=-=&==77&=0==0@----@@-&. *O &&==&=7*6OOX0&==&&&&&&&&7+1$@@@-==0@6&=7.X.X%1-@0@-%@00.:.0<%1---0-%",
"..>@00&70& &&&=000%-=0@0-07. &O:X6++ ..  +:X000========&.61,11%&&=&=**&7*6.6@%% 70-@00=+X*%<0@=-@=-0",
"*6@@%0=&==&=&. -=&=&=&===&7. =:+=1%0-0-0=&+610000==000=7*+-<1%=&==&&76 7*6.X@%0.==0@0-&+6*<#00=-000&",
".OX&>1000===&77=&&&&==&==&7..=X=@00000&=&=*61=-0-00000== X%$%0&=&&&&&6+ X6*X=@&=0@0@0= +X7$@0=&000&&",
"*:X619=00000===&&&&&&&&&&&&  &:=%=000000&=*:%7.=0-0007&& X$#==00&&=&&+::O6XX&&=@>1=0=& :601=0=&=&=&&",
"+:.* <10-0000==00=&&7&=&&&77 +o7%-@@@@@@0=+X===%11%@= 0=.:##==0=&&=== :o;X::X.0%-===&&7X6=$-=0=0&&&&",
":: =+=%0--@@@-000@0==&&&&   .OoX&&777&7 .+::X+* 7&&7 ..*6X%#=000==0=076O;;OX 00===&== .:+=##&-=&&&7&",
"OXX%%*=00@@%@%-=0-%0==&=&.  *XO:+00.6*=&.6:X*=%1#<#0*+XOXX&@0--0=&==-76OOXX=@&===&7.6X.:*-%<%&=-&&&&",
"O::&@ =00-@@@0@000-@0=00=7  .XOX@>9>>qwe# O*9828q2529$1@.X 000--&&==0&X:OXX&@===&& * &&X.0%%%7&0@=&7",
"O+7+X-@0--@@@0--00000@--0&&& *:&,-=-@1-0&&6010@@11%#<<<#&:670--0-0=&&X6= X: @=&=7+*== .:*=1&77&*&&= ",
":.#+ $@0--@@-0@%000==---=0&&& X1#0-00=00==6&#&0-0--@@0==&::+&0-0%@0=*:=%&+O.0&&=*o* +XOO+=@& &&* 0=.",
":*1.=1%--@-0-%1000===0-@&<970.+#@#-00000=&**$=00000000== X::+ &0-= +XX07 .:X 7  .O:::XOo+== &==& == ",
":+@-.%--0--0@-=7=0=======&%&0*.9#1=0000=& +X%0==-@0=00=7++O;o:X*+++XXX0&  :O. 7.*:OXX:OOO7====.. =7 ",
"X.&&.@-00000===@%=====0==&0&=+ $@==00===&.6 10==%%==-0&=.0=*::::XXX*&6*& .O:+*+.0- +X::::7&==&.7  *+",
"6.7 *1%0=0-0000@0====00-@00&=6 #00======& X=1=@1%#<-==&=& &*++:;O:=,#&&.6:::: ea32,#@.XO+7=000=.+*Xo",
":.&+*11-&##=00========0@%-@&=6.$0-&=====&&X0%===52#====&7 @850XOO $@7&&.OOO.0<e#@0===&XO6+..7..7 &*s",
":X*+ %%0=e%00======&==0@%%@&&:*>@0==&=0=&&X0@ 7-<=&====&& @<-&*:O=1&=&7&.O:0-& 7@@&& .XoOX. <%74>76o",
"6....0@=<>=0-0=========-@0=&=XX<$===000&7&:017&&7&==0==& &%7&& XO&>0=&&&=6O   &&%-=& .:XX+=#2,0<17+X",
"6&=   0=,#-1@-10===&&=======7OX%>0&0===777:7>====&00====7@1&&&7*X61%&=0& .:X*=00=00& +:O:X*7  &   .:",
".=0.**=@#%@%-1%==&&&=====0==*::=91&%1#-7  X >==&&====&70&%%&&&7.XX=@0-0=& :O*7&=&& *66X++6+* &77 .+O",
" =- *&=0#<##%1-=&=&&&====000*XX.9#01$10&&7X&1&&&&==&=&&0=%@&0=&76X***.7=*+X:XX**++.-%0-%0*XX+X66X:OO",
" -@0=0==&&0@@0====0===00000&=X::1#--000&7&X0@&=========0=@000==7*XX .*+6X::OO+*+=eaa4243yw1=@@0=&*:O",
".=---0=00==0=&====00==00000&0+::=<=00=&& 76-0===00====00=0====&&.X+=1#1=&=*XX..9t4,%@%%1#<1@%,9<1@7X",
"X ====-@@-000=0000000000000&7+++.$-===&7*.6@0=0000==00=0&&0===&&+X+.0&0=7 *+6@44#-0-0--00-00-0&=&. 6",
":+..7-0@@@@-0=000000=0000==& *@&:0%00&*+::O@0=@@@%%%@@-0 700==&&*:-=.  .  .**,2%@%@-00-0=0%--00==&&*",
"O+++.&===--0&&==00000000=&7*+ =&+:++66XX6Xo ==-@00= 7 7.+.&=00=&+:******.++6&q$@%@--0=&&&=0@000==&&.",
"O+. .+6X++**.*.   .++6++X:X:6..*++6X.&&.*:OO66*&@%#<99>$100==& +OOO:**++XXXX1y%%@--00=&&=0=00==10&&*",
"X+*.*.7 .+X:::XX:::OOoo:X&@<9$1$<<&.1>><%&6O+09899599,,@@@11%-=*+:+@<1#@%=.698@%0=0-0=7==&0====#=&&*",
"X -1%##55,$1#$<$$$#1+OO6 #<><##10=00======*+=@@00-=0--@0==&&&&&  +=<-&00@==*2>-@0===0-==%9>===&007&.",
"&ee9<-000000-%#%%%-0.OX*-00@@-===0====00=&**%77=0=-0=&&7   ..*.+*X=%& ****.+$1@@=====00##@=&==&== 7*",
"@% &====000========& X:71=00=&&&==&&&=== .X*1 &7 . **..  ...**+X6:*=*XXX66XX@#@-7==0===-@===&==&&  +",
"*= =0==&======00==7  XX0=7&&=&=&&77&&&&& .:6 .7 *+6++6666666XXXXX:OX6+++6XXX*%@-0==-==========&7&77*",
"O..===0000=====&7777 +X &7&&===00--00==& +OO:*+.&%##>>,>><$%=7&===7.**.*.6OOX@@--000====&&0=0@&7&77.",
":OOX+.....*++*++.*. *XXX+*. 77&&....***+XOOX.#23w59<929ee9,,<#<>,>>,#$,,1=+OX1-@-0=--====&0--0&7&77 ",
";oo:XX.7& +6O;O:X+.&@#<<>9>99eee9>$1%%,,#=+6#2>10==========&&=&&&=0000===&=6+#@@00=%0=0=00=0==== 7&.",
";XXO.#<,,<#1 OX*,83t382,1%@%%@1%1#%1#1#,>9160% =0=0=0-000=0000==0-0=====  -+ 1@@00-0&=0=000=000=777.",
"OO:.9>000==& +:=><%@-7&=%#,84art8>@010=0=01*=#====0==$%0-0==00=&=@-=0==07.0* 1@@-0-&=0=00000000==& .",
";:X1#=--@-0& .X01&=@&&@%523aa38e5,-=0===0&&& #===00=0@-=0000======0==== . =*.1@-0---==000000000=&0=.",
":X*11%%@%@-= .+%#000.-e25qe11%%@1%==&======0 $==000000000-0&===0====000 6.+:+1%@=&=-00000---@-@00-0*",
":X+,#@%@%@0= X+1#=--8dd>>$-@#1@0%@&=======&0.#==0--00000--0=0=00=0@%@= +O::X:=$@-000&===0-000000007:",
":+.9#@%@@@-=766%1=-2y2<%@0@-%%00@%0====0==&0+. =0---0-000&===0@%%-= *++X:X::O:*7-@%@@@@@@@@@@@--0=*O",
"X:.#1@@@@-0=&XX%%011@@@@0--0@%==@%@@0000==7=*O6*0@%%%%@@0000@0=&&=@%%%0.X7 .6OOX*    777 7 ..*+++XX6",
".*.@%#0=&====*:0-&-=0@--00000@==-%#-0000==7=+O6*.70--0=&&&& .&-#959,10=-&.* +::+. 0%#%####<<1%===00 ",
"6+&11#=====0=.O&-&&==0--0-000=0=0%@=0000=&7&*X.#e2ee><<%&*+ @>>,1-===000== .:O7e882e9e2222299>#1%0=7",
"  &###====0&&.o @&===0000-0=0===0@000000=&7&.:=5<<#1%@%1#@X0>0====00000000=&6693>1-000==00-00@00====",
" &=$%1=&-$1 ++O.@&===000--00====000000000&7& X=#&&====0=7=*#1=0=====-00000&06=2%-00-@@000===0=0000=&",
" &&$00==@%==66O*@==&=00-0--00000=====00==&77.:++.7777&&&...-==&=7. &0--00==0*>#@0@111%#10=&&====0=&&",
" &.1@==0=7==*:XX%=&==0@#-000#00&&===&=&==& &.OOO:+*.  7  *X7000=.+*7==000=-7%$@-0@1$588,0&==&00=0=&&",
" 7.=000===0=7O::@=&===@#0-71$===0=0&   &=&7& 6+*X6X:XX+6:XX*..+6:X::6+*. ...>#-=001@%-7&&&=& 0@=0=&&",
"7 . =0==0===&XO:=&&&=1$1= *1-=0000=&&=&70=7&&.%<<$@0.XX -1#$<<<<<##1-7 *::X611=====0=&=-=&==0-@===&&",
" .*7==&&====&XO6&&7=0%7+*&1-===000======--7=7=%0==0%1 @5<1%%11%11%%%@-0#=OX:%@====00=======0@-0=&&&7",
"  *&=7  .  . .X:++***.05y3<@1>100000=&=00-7= 0-&&=&&005%7&=======&&&=00&%*O:@@=&=0-%0==-@-%1@00=&&&7",
"& +=0=======& 6::*&%<8t4<0=00=000-@0=00000&&670&===0=&1&==000=======&=0& .:O=0===-1$##%%0=-@-===&&&&",
"  +.00@@@@-07+O: 1>><#-&=00000000%-0=0000=&&*.-&==0&+00--0-0========00=&7 *O=0&=0=7&0@@000==00==7&&&",
"7 *X&0@%%%-&6OO*%10===0-@0000000@%0==0000= =.&07&00*@#&=@0==-0=====0=00=&7.:&0=========000======77&&",
"7 +6*.*.  .+OOO*1@&==000===0000-0--0==000& 0*.&&77*@<&&===&=-%-=====%@=0&&.O 0===&&&=======&&=0=&&&=",
"& ++*70@%-%1@ :+%@&&==&@1@=@0=00-%0  &=0=&& ::6X6X1,7&&===0====00-0=01@0=7*O -===&&&==0&===&&====&&=",
"  ++0<%-@-@@@0.6%0===&*.7&7=0==0@-=%1@&=0=&X+.+OX-<&=&0========000-0==00= *O*@========0====&&====&&&",
".+: <0=0====&&7:00=== 7&&&.6+.&0-=0%0===== X07*XX0===&0000==0=0000000000= *OO--=00=00-0=&&7&&&&====&",
";X:=1=0===&00 &X60-00 =@%#%0=&=00000-@--=7XX& *:.00==00000=000000-0=0000= XOo+&==0=======&&&&&&&77*X",
"XXX&@=0======& 6oX&0-0&&&&=0=7===&===& .6XO:XXX6@000==00000000000--0000==.6O;o:6.7&=0=. .*++...*+*6X",
"&*X-1=@-00=&=&7XO:X* 7..+66::6**.6X6+6+&0=& XO+7@%10==00000%-0000000-0@0= .O;O7#244w9<$<,1@%%1%@%@&&",
"7 *%1=-@-00007 .ooXX+.. ..  0=-@-.:*==00=7&= ..=$#1=000-00000000000%#10==&.O:7#@@@%$$-00@0000000===&",
"& 6#%=0-@@0-=&7.X+0%00@0===&&&&7  X.&7 7&&7  ..&>%$0000@-00@00000-0%1599<=.O*@=0000-#%00=0==0=0=&&&&",
"& 61@==0--00=77+*1=&77 7  77&777 .67&&&&&&7 7.+7,%,@=0-0-000@0-000000-#,-= X&1=0000=&0-00=====0& &&&",
"&.X=  &000==77&+*-7&7&&7777&&&&&=06&==&&7  .7.+*<$,@0000-000=000000000--=& X@$=0==&==0-0=====&=&&&&&",
"&.O:.1=00= *7& 67=7&&&7.7&&===&&&&+&==&&7 7 &.**#15$-000=00&%$00000&=0-@&& +1<=0=&===0--000==&&===&&",
"&+;O=@0&&&  &&*X0&7&=&&&&=&&=&&&7 + &====&=&&..*#%9,0000=0=1,-0000=@%00@=& *%<=0=&==0--0= 7=0=======",
"&+;+==-0====&7.:0= &=====&&=====&=+ 7&=0000==. .#1,50000=00@00@--0-@000-=& X0#==0==00000=&0-000==00=",
"&*oO.&@%@@-0==*:+77=00--00-@@@@@0=* 7=-@-00= . .#1>81000-0@1#11%-00=000=0&.O&#&==-@@00-000-00-000000",
" XOX+==-@@0=7.6XX*7-00000==0000=7.+X.7&&&=7*6:*.@$te$%1#@=-%1#11@=000000==.O.#700-@@0@@-00-----000--",
"*OOX6 &=====7.6+.7&00-@%%@@%1#%@--1,>$@%@0=*6O:X=qy>,>,0=#@-@1--000-0000=7*OO0&=0---0-@000-@--@-000-",
"X::+0#<<<#%$>%+X02qe522qq852adpuiy8$@%-@1@0=.:OX=88<,10-<#=0==-@--@@-00=&&+OoX =--00000=000000@@@@@0",
"O:X@%00=====>166<9ifdddfrdaw>5w4w<@--%1@@--0&6O: <>%7 ,<$=0=000@@@%@0000&.:;ooO*70--00=&&&==0=0-=&.+",
"%=X#0=&&&&=&0&X0$1%1@%#$5p2%%#%@@0--00=%@-@0&+OX.07*+<8&%000=00-%@@@-==0*XOO;OOO:6*++*6X:XX6+**.. ==",
"%=6%0&&&&&7&=X 8-@0=011#%1@%1%00@-0==@=0-0-07+OOX*01 >9=%00000-@@%-0-==&*&XOOO.  7=00==7OOO&%1#<>>>,",
". + = 77&&= +X#<=-000-%@==00%@0-0===00==00== 6X:*@@-=%%00-0--%%@@@-@0=-. &+OO7#<$#<<<<,%*O.#@00-0000",
"77XX &7=0= :6X=0000000-=@00=00&==&&00&=00-=7. 6O.@00==000@0-%%@@-%@@0&&. &.X6%0&&=&==@%& :&%&&@@0-=0",
"7&+XX+* .&0.6X@-=00000011000@0===&==&==0-0&&..X6=-===000-@-@@@@@@-@@=&&  & :6=7&&&&&=@=&7:&1&=#@@0=0",
"&&*+7.X.%#@=X:--00000000==000===00====0===&&*+:*00=0===00-0==00-=&==&7&7&7 X+@7&=&&=@%0= X.17%@%9<&&",
"=&*.2@&1-=&&+:-@000000=00000===00=&==-@==0&7*XX.@00-0&=0=0&===0==0&=&&&.&  X*%7&======== X+@700>>-==",
"=&*&<.#000=&.:=-00000=0======0=0=====0===-&&.+:.0---=&=====00=&0%===&== 7& 6 @7=00====&& :6=  %91&00",
"&&6X*@1=00==7X 0-%%=0000=&=====0=========0=&.6O 0=-0&&===0=@@7-@---0&1077&.:.%7&00=====&&X.@ &01%=00",
". :+1#=0==0& + -0@1==000===&&==%-==000==--==&XO.&==&===0@0@1@&%-@@-@&<1@ 7+O+@&&0==0=====+*%7&&====&",
"+6:*1$0&&=&7 +&@==@-=000==&&&=-,%&0=====-000=:X*&=0&==0111<<1=%@@%@@0&--+6Xo*@&=-=00=1===.*1777&&&==",
"=7:710%=&7& 7+ 00%%-@-0=&=&==00-==000-000-@0&:X&-=-=-%@119>$&1$0-0@@-==&XOOO*#=&100=0#===+*17&&&&&=0",
"&=+&#&@=.=@&&*&-@1@0-00000=====-@111%@@0-@@=&::0%=--0@@%%@0&70@0@%%@00=7&6oO+@0&1-==1@==&6*17&&&0===",
"&=.7%=@=&0=&0.01==0-0000000@1@%%@@@--00@@@%@*oO=@0-000000&=000=00000000=&&O;+0&&1000-%-=&:6%&&&=0==0",
"&&+=%=-0=--@1 &-0@---0-000000000000-@@%@##1&:;O7%0000--0---0=00===0000=07 XO+0&=100==@0=7X+%===00=0=",
"7&+7@=-10=0&&X =======-00====000000-@@@@%10+X;; @00@1#1@-000-==0000000=0  +O+0=0--@---==.O+@=000000=",
"7&*.%&0-1@&0=:.&&=&====00=========0-----0&..*oo+0==0%11$1%-0@====00==&7 **.:.000&&=0=&& +X6%0-00000&",
"=&7:+.7&&==&*OX++.&=0======&7 .*..&====&.XXXo;oO*.  7&0%@-0=&&&&&&&7  .**+66&%-000000=  +:O&%=-0---0",
"=&.;s:**.  +::O:OO:**+++66XXO;ooO::66XXOo;osoX*X:X6***.77&&7 .7 &7  .*+XXXOX %0-@@%%@-&.XoOX100-@@@@"
};
